<svg xmlns="http://www.w3.org/2000/svg" xmlns:xlink="http://www.w3.org/1999/xlink"><defs><symbol viewBox="0 0 32 32" id="check"><path d="M11.941 28.877L0 16.935l5.695-5.695 6.246 6.246L26.305 3.123 32 8.818z" /></symbol><symbol viewBox="0 0 50 50" id="close"><path d="M9.156 6.313L6.312 9.155 22.157 25 6.22 40.969 9.03 43.78 25 27.844 40.938 43.78l2.843-2.843L27.844 25 43.687 9.156l-2.843-2.844L25 22.157z" /></symbol><symbol viewBox="0 0 122.88 122.88" id="copy-link"><path d="M60.54 34.07a7.65 7.65 0 01-10.82-10.82l13-12.95a35.38 35.38 0 0149.91 0l.07.08a35.37 35.37 0 01-.07 49.83l-13 12.95a7.65 7.65 0 01-10.82-10.82l13-13a20.08 20.08 0 000-28.23l-.11-.11a20.08 20.08 0 00-28.2.07l-12.95 13zm14 3.16a7.65 7.65 0 0110.77 10.82L48.05 85.31A7.65 7.65 0 0137.23 74.5L74.5 37.23zM62.1 89.05a7.65 7.65 0 0110.81 10.82l-12.7 12.71a35.37 35.37 0 01-49.76.14l-.28-.27a35.38 35.38 0 01.13-49.78L23 50a7.65 7.65 0 1110.83 10.78L21.12 73.49a20.09 20.09 0 000 28.25 20.07 20.07 0 0028.27 0L62.1 89.05z" /></symbol><symbol viewBox="0 0 122.6 122.88" id="open-link"><path d="M110.6 72.58c0-3.19 2.59-5.78 5.78-5.78 3.19 0 5.78 2.59 5.78 5.78v33.19c0 4.71-1.92 8.99-5.02 12.09a17.06 17.06 0 01-12.09 5.02H17.11c-4.71 0-8.99-1.92-12.09-5.02A17.06 17.06 0 010 105.77V17.19C0 12.48 1.92 8.2 5.02 5.1 8.12 2 12.4.08 17.11.08h32.98c3.19 0 5.78 2.59 5.78 5.78 0 3.19-2.59 5.78-5.78 5.78H17.11c-1.52 0-2.9.63-3.91 1.63a5.511 5.511 0 00-1.63 3.91v88.58c0 1.52.63 2.9 1.63 3.91a5.511 5.511 0 003.91 1.63h87.95c1.52 0 2.9-.63 3.91-1.63s1.63-2.39 1.63-3.91V72.58zm1.82-55.12L54.01 76.6a5.776 5.776 0 01-8.16.07 5.776 5.776 0 01-.07-8.16l56.16-56.87H78.56c-3.19 0-5.78-2.59-5.78-5.78 0-3.19 2.59-5.78 5.78-5.78h26.5c5.12 0 11.72-.87 15.65 3.1 2.48 2.51 1.93 22.52 1.61 34.11-.08 3-.15 5.29-.15 6.93 0 3.19-2.59 5.78-5.78 5.78-3.19 0-5.78-2.59-5.78-5.78 0-.31.08-3.32.19-7.24.16-6.04 1.13-14.04 1.62-19.52z" /></symbol></defs></svg>